<?xml version="1.0" encoding="iso-8859-1"?>
<!-- Generator: Adobe Illustrator 19.0.0, SVG Export Plug-In . SVG Version: 6.00 Build 0)  -->
<svg version="1.1" id="Layer_1" xmlns="http://www.w3.org/2000/svg" xmlns:xlink="http://www.w3.org/1999/xlink" x="0px" y="0px"
	 viewBox="0 0 512.002 512.002" style="enable-background:new 0 0 512.002 512.002;" xml:space="preserve">
<path style="fill:#2D527C;" d="M270.577,495.961c-46.51,0-91.68-13.267-130.632-38.367c-2.214-1.425-4.565-3.006-7.183-4.827
	l-16.871-11.75c-3.796-2.642-6.224-6.832-6.635-11.437c-0.409-4.607,1.244-9.158,4.515-12.429l49.265-49.264
	c5.196-5.196,13.315-6.068,19.495-2.093l11.665,7.502c22.993,14.788,49.404,22.604,76.378,22.604
	c77.947,0,141.361-63.418,141.361-141.366s-63.415-141.366-141.361-141.366c-22.343,0-44.516,5.244-64.121,15.166
	c-3.831,1.939-7.61,4.076-11.236,6.357c-7.303,4.59-16.947,2.392-21.542-4.91c-4.591-7.305-2.395-16.95,4.91-21.542
	c4.441-2.792,9.072-5.412,13.76-7.783c23.955-12.125,51.007-18.533,78.229-18.533c95.175,0,172.606,77.433,172.606,172.611
	s-77.431,172.611-172.606,172.611c-32.979,0-65.233-9.534-93.278-27.567l-1.073-0.691l-27.16,27.161l1.55,1.08
	c2.301,1.601,4.345,2.975,6.244,4.198c33.904,21.848,73.222,33.393,113.716,33.393c115.893,0,210.178-94.288,210.178-210.183
	S386.471,44.351,270.577,44.351c-40.192,0-79.262,11.384-112.988,32.92c-31.892,20.369-57.655,48.853-74.675,82.518l49.39,13.235
	c8.333,2.234,13.279,10.8,11.047,19.133c-2.232,8.335-10.798,13.281-19.134,11.047l-67.697-18.139
	c-4.502-1.206-8.233-4.362-10.169-8.603c-1.936-4.241-1.876-9.125,0.162-13.317l6.846-14.08
	c19.512-40.131,49.739-74.063,87.414-98.126c38.758-24.751,83.642-37.833,129.805-37.833c133.12,0,241.423,108.304,241.423,241.427
	S403.698,495.961,270.577,495.961z"/>
<polygon style="fill:#CEE8FA;" points="228.92,327.13 15.623,269.977 72.776,483.274 "/>
<path style="fill:#2D527C;" d="M72.776,498.897c-1.348,0-2.706-0.173-4.043-0.533c-5.391-1.445-9.602-5.655-11.047-11.047
	L0.533,274.018c-1.445-5.39,0.097-11.143,4.043-15.09c3.948-3.946,9.697-5.491,15.091-4.043l213.298,57.153
	c5.391,1.445,9.602,5.655,11.047,11.047c1.445,5.39-0.097,11.143-4.043,15.09L83.824,494.319
	C80.856,497.288,76.864,498.897,72.776,498.897z M37.716,292.07l43.146,161.023l117.879-117.877L37.716,292.07z"/>
<g>
</g>
<g>
</g>
<g>
</g>
<g>
</g>
<g>
</g>
<g>
</g>
<g>
</g>
<g>
</g>
<g>
</g>
<g>
</g>
<g>
</g>
<g>
</g>
<g>
</g>
<g>
</g>
<g>
</g>
</svg>
